<?xml version="1.0" encoding="utf-8"?>
<!-- Generator: Adobe Illustrator 21.1.0, SVG Export Plug-In . SVG Version: 6.00 Build 0)  -->
<svg version="1.1" id="Layer_1" xmlns="http://www.w3.org/2000/svg" xmlns:xlink="http://www.w3.org/1999/xlink" x="0px" y="0px"
	 viewBox="0 0 792 612" style="enable-background:new 0 0 792 612;" xml:space="preserve">
<style type="text/css">
	.st0{fill:#8A8A8D;}
	.st1{fill:#0093C9;}
</style>
<g>
	<g>
		<path class="st0" d="M342.8,228.8c10.5,0,22,0,23.7,0c3.2-5.3,12.1-12.1,15.3-12.8c-13,0.1-26,0.1-39.1,0.2L342.8,228.8z"/>
		<path class="st0" d="M336.9,216c-4.3,0-8.5,0-12.8,0.1c-1.5,0.3-5.5,1.4-8.2,5.1c-2.1,2.8-2.4,5.9-2.5,8.1
			c-0.4,5.9,1.9,7.8,1.9,13.6c0,2.2-0.3,5.4-1.9,9.2c-3,0-5.9,0-8.9,0c0,4.9,0,9.7,0,14.6c2.7,0,5.5,0,8.2,0c2,3.1,2.5,5.7,2.7,7.4
			c0.7,6.4-3.2,9-2.7,16.6c0.1,1.9,0.3,4.4,1.9,6.9c2.3,3.7,6,5.2,7.6,5.7c27,0,54,0,81,0c18.7-7.9,31.3-24.3,32.3-42.4
			c0.8-14.2-5.9-25-8.9-29.1c-5,0-10,0-15,0c1.6,1.7,11.9,13.2,10.1,30c-2.2,19.7-19.3,28.9-20.6,29.6c-24.5,0-49,0-73.5,0
			c-0.5-1.2-1.1-3-1.3-5.3c-0.5-4.3,0.7-6.9,1.3-10.9c0.4-2.5,0.7-6.2,0-10.8c-0.3-0.3-1.9-1.9-1.8-4.4c0-2.6,1.8-4.2,2.1-4.4
			c0.5-4.1,0.3-7.4,0-9.6c-0.6-4.6-1.8-7-1.4-11.2c0.2-2.7,0.9-4.8,1.4-6.1c3.1,0,6.1,0,9.2,0C336.9,224.5,336.9,220.3,336.9,216z"
			/>
	</g>
	<g>
		<path class="st1" d="M450.7,290.6c-10.5,0-21.1,0-22.9,0c-1.6,3.2-13.4,12.3-16.2,12.8c13-0.1,26-0.1,39.1-0.2L450.7,290.6z"/>
		<path class="st1" d="M456.5,303.4c4.3,0,8.5,0,12.8-0.1c1.1-0.2,5.2-1.1,8.2-5.1c3.6-4.7,2.7-9.9,2.5-10.8c-0.9-2.3-2-6.1-1.9-11
			c0.1-4,1.1-7.2,1.9-9.2c3,0,5.9,0,8.9,0c0-4.9,0-9.7,0-14.6c-2.7,0-5.5,0-8.2,0c-2-3.1-2.5-5.7-2.7-7.4c-0.7-6.4,3.2-9,2.7-16.6
			c-0.1-1.9-0.3-4.4-1.9-6.9c-2.3-3.7-6-5.2-7.6-5.7c-27,0-54,0-81,0c-18.7,7.9-31.3,24.3-32.3,42.4c-0.8,14.2,5.9,25,8.9,29.1
			c5.5,0,10.9,0,16.4,0c-1.4-1.4-13.2-13.1-11.2-30.6c2.1-19.5,19.2-28.4,20.4-29c24.5,0,49,0,73.5,0c0.5,1.2,1.1,3,1.3,5.3
			c0.5,4.3-0.7,6.9-1.3,10.9c-0.4,2.5-0.7,6.2,0,10.8c0.3,0.3,1.9,1.9,1.8,4.4c0,2.6-1.8,4.2-2.1,4.4c-0.5,4.1-0.3,7.4,0,9.6
			c0.6,4.6,1.8,7,1.4,11.2c-0.2,2.7-0.9,4.8-1.4,6.1c-3.1,0-6.1,0-9.2,0C456.5,294.9,456.5,299.1,456.5,303.4z"/>
	</g>
</g>
<g>
	<path class="st1" d="M236,329.9H272v9.1h-12.6v33.7h-11V339H236V329.9z"/>
	<path class="st1" d="M280,341.3c1.8-1,3.8-1.5,6.1-1.5v9.8c-0.4,0-0.9-0.1-1.6-0.1c-2.5,0-4.6,0.6-6.1,1.8
		c-1.6,1.2-2.5,2.8-2.7,4.8v16.6H265V341h10.7v4.6C276.8,343.7,278.3,342.3,280,341.3z"/>
	<path class="st1" d="M320.2,340.2v32.5h-10.7v-5.3c-2.2,3.8-5.7,5.7-10.4,5.8c-3.5,0-6.3-1.1-8.4-3.4c-2.1-2.3-3.2-5.3-3.2-9v-20.5
		h10.7v17.5c0,1.8,0.5,3.3,1.4,4.3c0.9,1,2.2,1.6,3.8,1.6c1.9,0,3.4-0.7,4.4-2.1c1.1-1.3,1.6-3.1,1.6-5.3v-16H320.2z"/>
	<path class="st1" d="M351.6,344.5c2.8,3.1,4.3,7.4,4.3,12.8c0,0.8,0,1.5-0.1,1.9h-22.6c0.5,1.8,1.4,3.3,2.7,4.2
		c1.3,1,2.8,1.5,4.7,1.5c1.4,0,2.8-0.3,4.1-0.8c1.3-0.6,2.5-1.4,3.6-2.5l5.6,5.6c-1.7,1.9-3.7,3.3-6.1,4.3c-2.4,1-5.1,1.5-8.1,1.5
		c-3.5,0-6.5-0.7-9.1-2c-2.6-1.4-4.6-3.3-6-5.8c-1.4-2.5-2.1-5.4-2.1-8.6c0-3.3,0.7-6.3,2.1-8.8c1.4-2.5,3.4-4.5,5.9-5.9
		c2.6-1.4,5.5-2.1,8.9-2.1C344.7,339.8,348.8,341.4,351.6,344.5z M345.5,353.6c0-1.9-0.6-3.4-1.7-4.5s-2.6-1.7-4.4-1.7
		c-1.7,0-3.1,0.6-4.2,1.7c-1.1,1.1-1.9,2.6-2.3,4.6H345.5z"/>
	<path class="st0" d="M385.5,340.8c-1.9-1-3.7-1.5-5.6-1.5c-2.1,0-4.1,0.5-5.8,1.6c-1.7,1.1-3.1,2.5-4.1,4.4c-1,1.9-1.5,3.9-1.5,6.2
		s0.5,4.4,1.5,6.2c1,1.9,2.4,3.3,4.1,4.4c1.7,1.1,3.7,1.6,5.8,1.6c1.7,0,3.5-0.4,5.4-1.3c1.9-0.9,3.6-2.1,5-3.6l6.4,6.9
		c-2.3,2.4-5,4.3-8.1,5.7s-6.3,2.1-9.3,2.1c-4.2,0-7.9-1-11.3-2.9c-3.4-1.9-6-4.5-7.9-7.9c-1.9-3.3-2.9-7-2.9-11.2
		c0-4.1,1-7.8,2.9-11c2-3.3,4.7-5.9,8.1-7.7c3.4-1.9,7.3-2.8,11.5-2.8c3.1,0,6.2,0.7,9.2,2c3,1.3,5.6,3.1,7.7,5.3l-6.4,7.7
		C389,343.1,387.4,341.8,385.5,340.8z"/>
	<path class="st0" d="M423.7,341.9c2.7,1.4,4.8,3.3,6.2,5.8c1.5,2.5,2.2,5.4,2.2,8.7c0,3.3-0.7,6.2-2.2,8.7
		c-1.5,2.5-3.6,4.4-6.2,5.8c-2.7,1.4-5.8,2.1-9.3,2.1c-3.5,0-6.6-0.7-9.3-2.1c-2.7-1.4-4.8-3.3-6.2-5.8c-1.5-2.5-2.2-5.4-2.2-8.7
		c0-3.3,0.7-6.2,2.2-8.7c1.5-2.5,3.5-4.4,6.2-5.8c2.7-1.4,5.8-2.1,9.3-2.1C417.9,339.8,421,340.5,423.7,341.9z M409.4,350.7
		c-1.3,1.5-1.9,3.4-1.9,5.8c0,2.4,0.6,4.4,1.9,5.9c1.3,1.5,3,2.2,5,2.2c2.1,0,3.8-0.7,5.1-2.2c1.3-1.5,1.9-3.4,1.9-5.9
		c0-2.4-0.7-4.3-2-5.8c-1.3-1.5-3-2.2-5.1-2.2S410.6,349.2,409.4,350.7z"/>
	<path class="st0" d="M469.5,328.1v44.5h-10.7v-4.2c-1.1,1.5-2.5,2.7-4.1,3.5c-1.6,0.8-3.5,1.2-5.5,1.2c-3,0-5.6-0.7-7.9-2.1
		s-4.1-3.4-5.3-5.9c-1.3-2.5-1.9-5.5-1.9-8.8c0-3.3,0.6-6.2,1.9-8.6c1.2-2.5,3-4.4,5.2-5.8c2.2-1.4,4.8-2,7.8-2c2.1,0,4,0.4,5.6,1.2
		c1.7,0.8,3.1,1.9,4.2,3.4v-16.3H469.5z M456.9,362.4c1.3-1.5,1.9-3.5,1.9-5.9c0-2.4-0.6-4.4-1.9-5.9c-1.3-1.5-3-2.2-5-2.2
		s-3.8,0.8-5.1,2.3c-1.3,1.5-2,3.5-2,5.9s0.6,4.4,2,5.9c1.3,1.5,3,2.3,5.1,2.3S455.6,363.9,456.9,362.4z"/>
	<path class="st0" d="M501.4,344.5c2.8,3.1,4.3,7.4,4.3,12.8c0,0.8,0,1.5-0.1,1.9H483c0.5,1.8,1.4,3.3,2.7,4.2
		c1.3,1,2.8,1.5,4.7,1.5c1.4,0,2.8-0.3,4.1-0.8c1.3-0.6,2.5-1.4,3.6-2.5l5.6,5.6c-1.7,1.9-3.7,3.3-6.1,4.3c-2.4,1-5.1,1.5-8.1,1.5
		c-3.5,0-6.5-0.7-9.1-2c-2.6-1.4-4.6-3.3-6-5.8c-1.4-2.5-2.1-5.4-2.1-8.6c0-3.3,0.7-6.3,2.1-8.8c1.4-2.5,3.4-4.5,5.9-5.9
		c2.6-1.4,5.5-2.1,8.9-2.1C494.5,339.8,498.6,341.4,501.4,344.5z M495.3,353.6c0-1.9-0.6-3.4-1.7-4.5c-1.1-1.1-2.6-1.7-4.4-1.7
		c-1.7,0-3.1,0.6-4.2,1.7c-1.1,1.1-1.9,2.6-2.3,4.6H495.3z"/>
	<path class="st0" d="M522.5,341.3c1.8-1,3.8-1.5,6.1-1.5v9.8c-0.4,0-0.9-0.1-1.6-0.1c-2.5,0-4.6,0.6-6.1,1.8
		c-1.6,1.2-2.5,2.8-2.7,4.8v16.6h-10.7v-32.5h10.7v5.4C519.3,343.7,520.7,342.3,522.5,341.3z"/>
	<path class="st0" d="M543.1,347.1c-0.9,0-1.7,0.2-2.2,0.5c-0.6,0.3-0.8,0.9-0.8,1.5c0,0.7,0.4,1.3,1.3,1.7s2.3,0.9,4.2,1.4
		c2.3,0.7,4.3,1.3,5.8,2c1.5,0.7,2.9,1.7,4,3c1.1,1.3,1.7,3.1,1.7,5.3c0,3.3-1.3,5.9-3.8,7.7c-2.5,1.9-5.9,2.8-9.9,2.8
		c-2.8,0-5.4-0.4-7.9-1.2c-2.5-0.8-4.8-1.9-6.7-3.5l3.4-6.9c1.8,1.3,3.8,2.3,5.8,3c2,0.7,3.9,1,5.7,1c1,0,1.9-0.2,2.5-0.5
		c0.6-0.3,0.9-0.8,0.9-1.5c0-0.8-0.5-1.4-1.4-1.9c-0.9-0.4-2.3-0.9-4.2-1.4c-2.3-0.7-4.2-1.4-5.6-2c-1.5-0.7-2.8-1.6-3.9-3
		c-1.1-1.3-1.7-3-1.7-5.2c0-3.3,1.2-5.9,3.7-7.7c2.5-1.9,5.7-2.8,9.6-2.8c2.4,0,4.7,0.3,7,1c2.3,0.6,4.5,1.6,6.5,2.8l-3.6,7
		C549.2,348.2,545.8,347.1,543.1,347.1z"/>
</g>
<g>
	<path class="st1" d="M305.6,393.7c0,2.4-1.5,4-3.7,4c-1.1,0-2-0.4-2.6-1.2v1.2H297v-11h2.3v4.2c0.6-0.8,1.4-1.2,2.5-1.2
		C304.1,389.6,305.6,391.2,305.6,393.7z M303.3,393.6c0-1.3-0.8-2.2-2-2.2c-1.2,0-2,0.9-2,2.2c0,1.3,0.8,2.2,2,2.2
		C302.4,395.8,303.3,394.9,303.3,393.6z"/>
	<path class="st1" d="M314.1,394.3h-5.7c0.3,1,1,1.6,2.1,1.6c0.8,0,1.5-0.3,2-0.8l1.2,1.2c-0.8,0.9-2,1.4-3.4,1.4
		c-2.6,0-4.2-1.6-4.2-4.1c0-2.5,1.7-4.1,4.1-4.1C312.9,389.6,314.3,391.4,314.1,394.3z M311.9,393c0-1.1-0.7-1.7-1.8-1.7
		c-1,0-1.7,0.7-1.9,1.7H311.9z"/>
	<path class="st1" d="M331.9,392.6v5h-2.3v-4.4c0-1-0.6-1.6-1.5-1.6c-1.1,0-1.8,0.9-1.8,2v4H324v-4.4c0-1-0.6-1.6-1.5-1.6
		c-1.1,0-1.8,0.9-1.8,2v4h-2.3v-8h2.3v1.4c0.6-1,1.5-1.5,2.7-1.5c1.4,0,2.3,0.7,2.7,1.8c0.5-1.2,1.5-1.8,2.9-1.8
		C330.8,389.6,331.9,390.7,331.9,392.6z"/>
	<path class="st1" d="M340.9,394.3h-5.7c0.3,1,1,1.6,2.1,1.6c0.8,0,1.5-0.3,2-0.8l1.2,1.2c-0.8,0.9-2,1.4-3.4,1.4
		c-2.6,0-4.2-1.6-4.2-4.1c0-2.5,1.7-4.1,4.1-4.1C339.7,389.6,341,391.4,340.9,394.3z M338.7,393c0-1.1-0.7-1.7-1.8-1.7
		c-1,0-1.7,0.7-1.9,1.7H338.7z"/>
	<path class="st1" d="M350,392.6v5h-2.3v-4.4c0-1-0.6-1.6-1.6-1.6c-1.1,0-1.8,0.9-1.8,2.1v3.9H342v-8h2.3v1.4c0.6-1,1.5-1.5,2.8-1.5
		C348.8,389.6,350,390.7,350,392.6z"/>
	<path class="st1" d="M356.5,397.2c-0.6,0.3-1.3,0.6-2.1,0.6c-1.4,0-2.5-0.8-2.5-2.5v-3.7h-1.1V390h1.1v-2.2h2.3v2.2h2.2v1.6h-2.2
		v3.3c0,0.7,0.3,0.9,0.8,0.9c0.3,0,0.7-0.1,1.1-0.3L356.5,397.2z"/>
	<path class="st1" d="M365.4,393.7c0,2.4-1.7,4.1-4.3,4.1c-2.6,0-4.3-1.7-4.3-4.1c0-2.5,1.7-4.1,4.3-4.1
		C363.7,389.6,365.4,391.2,365.4,393.7z M359.1,393.7c0,1.3,0.8,2.2,2,2.2c1.2,0,2-0.9,2-2.2s-0.8-2.2-2-2.2
		C359.9,391.5,359.1,392.4,359.1,393.7z"/>
	<path class="st1" d="M368.8,391.1c0.6-1,1.5-1.5,2.6-1.5v2.2c-1.6-0.2-2.6,0.7-2.6,2.1v3.9h-2.3v-8h2.3V391.1z"/>
	<path class="st1" d="M379.7,394.3H374c0.3,1,1,1.6,2.1,1.6c0.8,0,1.5-0.3,2-0.8l1.2,1.2c-0.8,0.9-2,1.4-3.4,1.4
		c-2.6,0-4.2-1.6-4.2-4.1c0-2.5,1.7-4.1,4.1-4.1C378.6,389.6,379.9,391.4,379.7,394.3z M377.6,393c0-1.1-0.7-1.7-1.8-1.7
		c-1,0-1.7,0.7-1.9,1.7H377.6z"/>
	<path class="st1" d="M388.7,397.7h-2.3v-1.2c-0.6,0.8-1.4,1.3-2.5,1.3c-2.3,0-3.8-1.7-3.8-4.1c0-2.4,1.5-4.1,3.7-4.1
		c1.1,0,2,0.4,2.6,1.3v-4.2h2.3V397.7z M386.5,393.7c0-1.3-0.8-2.2-2-2.2c-1.2,0-2,0.9-2,2.2c0,1.3,0.8,2.2,2,2.2
		C385.6,395.9,386.5,395,386.5,393.7z"/>
	<path class="st1" d="M392.4,396.6c0,0.7-0.5,1.2-1.1,1.2c-0.7,0-1.1-0.5-1.1-1.2c0-0.7,0.5-1.2,1.1-1.2
		C392,395.4,392.4,395.9,392.4,396.6z"/>
	<path class="st1" d="M405.6,393.7c0,2.4-1.5,4-3.7,4c-1.1,0-2-0.4-2.6-1.2v1.2h-2.3v-11h2.3v4.2c0.6-0.8,1.4-1.2,2.5-1.2
		C404.1,389.6,405.6,391.2,405.6,393.7z M403.3,393.6c0-1.3-0.8-2.2-2-2.2c-1.2,0-2,0.9-2,2.2c0,1.3,0.8,2.2,2,2.2
		C402.5,395.8,403.3,394.9,403.3,393.6z"/>
	<path class="st1" d="M414.1,394.3h-5.7c0.3,1,1,1.6,2.1,1.6c0.8,0,1.5-0.3,2-0.8l1.2,1.2c-0.8,0.9-2,1.4-3.4,1.4
		c-2.6,0-4.2-1.6-4.2-4.1c0-2.5,1.7-4.1,4.1-4.1C413,389.6,414.3,391.4,414.1,394.3z M412,393c0-1.1-0.7-1.7-1.8-1.7
		c-1,0-1.7,0.7-1.9,1.7H412z"/>
	<path class="st1" d="M425.4,391.3l-1.5,1.1c-0.4-0.5-1-0.9-1.8-0.8c-1.1,0-1.9,0.9-1.9,2.1c0,1.3,0.8,2.2,1.9,2.2
		c0.8,0,1.5-0.3,1.9-0.9l1.6,1.1c-0.7,1.1-1.9,1.8-3.6,1.8c-2.4,0-4.1-1.6-4.1-4.1c0-2.5,1.7-4.1,4.1-4.1
		C423.4,389.6,424.7,390.2,425.4,391.3z"/>
	<path class="st1" d="M434.1,393.7c0,2.4-1.7,4.1-4.3,4.1c-2.6,0-4.3-1.7-4.3-4.1c0-2.5,1.7-4.1,4.3-4.1
		C432.4,389.6,434.1,391.2,434.1,393.7z M427.8,393.7c0,1.3,0.8,2.2,2,2.2c1.2,0,2-0.9,2-2.2s-0.8-2.2-2-2.2
		C428.6,391.5,427.8,392.4,427.8,393.7z"/>
	<path class="st1" d="M443.2,392.6v5h-2.3v-4.4c0-1-0.6-1.6-1.6-1.6c-1.1,0-1.8,0.9-1.8,2.1v3.9h-2.3v-8h2.3v1.4
		c0.6-1,1.5-1.5,2.8-1.5C442.1,389.6,443.2,390.7,443.2,392.6z"/>
	<path class="st1" d="M452.8,392.6v5h-2.3v-4.4c0-1-0.6-1.6-1.6-1.6c-1.1,0-1.8,0.9-1.8,2.1v3.9h-2.3v-8h2.3v1.4
		c0.6-1,1.5-1.5,2.8-1.5C451.7,389.6,452.8,390.7,452.8,392.6z"/>
	<path class="st1" d="M461.8,394.3H456c0.3,1,1,1.6,2.1,1.6c0.8,0,1.5-0.3,2-0.8l1.2,1.2c-0.8,0.9-2,1.4-3.4,1.4
		c-2.6,0-4.2-1.6-4.2-4.1c0-2.5,1.7-4.1,4.1-4.1C460.7,389.6,462,391.4,461.8,394.3z M459.6,393c0-1.1-0.7-1.7-1.8-1.7
		c-1,0-1.7,0.7-1.9,1.7H459.6z"/>
	<path class="st1" d="M469.8,391.3l-1.5,1.1c-0.4-0.5-1-0.9-1.8-0.8c-1.1,0-1.9,0.9-1.9,2.1c0,1.3,0.8,2.2,1.9,2.2
		c0.8,0,1.5-0.3,1.9-0.9l1.6,1.1c-0.7,1.1-1.9,1.8-3.6,1.8c-2.4,0-4.1-1.6-4.1-4.1c0-2.5,1.7-4.1,4.1-4.1
		C467.9,389.6,469.1,390.2,469.8,391.3z"/>
	<path class="st1" d="M475.9,397.2c-0.6,0.3-1.3,0.6-2.1,0.6c-1.4,0-2.5-0.8-2.5-2.5v-3.7h-1.1V390h1.1v-2.2h2.3v2.2h2.2v1.6h-2.2
		v3.3c0,0.7,0.3,0.9,0.8,0.9c0.3,0,0.7-0.1,1.1-0.3L475.9,397.2z"/>
	<path class="st1" d="M484.2,394.3h-5.7c0.3,1,1,1.6,2.1,1.6c0.8,0,1.5-0.3,2-0.8l1.2,1.2c-0.8,0.9-2,1.4-3.4,1.4
		c-2.6,0-4.2-1.6-4.2-4.1c0-2.5,1.7-4.1,4.1-4.1C483.1,389.6,484.4,391.4,484.2,394.3z M482.1,393c0-1.1-0.7-1.7-1.8-1.7
		c-1,0-1.7,0.7-1.9,1.7H482.1z"/>
	<path class="st1" d="M493.2,397.7H491v-1.2c-0.6,0.8-1.4,1.3-2.5,1.3c-2.3,0-3.8-1.7-3.8-4.1c0-2.4,1.5-4.1,3.7-4.1
		c1.1,0,2,0.4,2.6,1.3v-4.2h2.3V397.7z M491,393.7c0-1.3-0.8-2.2-2-2.2c-1.2,0-2,0.9-2,2.2c0,1.3,0.8,2.2,2,2.2
		C490.1,395.9,491,395,491,393.7z"/>
	<path class="st1" d="M496.9,396.6c0,0.7-0.5,1.2-1.1,1.2c-0.7,0-1.1-0.5-1.1-1.2c0-0.7,0.5-1.2,1.1-1.2
		C496.5,395.4,496.9,395.9,496.9,396.6z"/>
</g>
</svg>
