<?xml version="1.0" encoding="utf-8"?>
<!-- Generator: Adobe Illustrator 21.1.0, SVG Export Plug-In . SVG Version: 6.00 Build 0)  -->
<svg version="1.1" id="Layer_1" xmlns="http://www.w3.org/2000/svg" xmlns:xlink="http://www.w3.org/1999/xlink" x="0px" y="0px"
	 viewBox="0 0 792 612" style="enable-background:new 0 0 792 612;" xml:space="preserve">
<style type="text/css">
	.st0{fill:#8A8A8D;}
	.st1{fill:#0093C9;}
</style>
<g>
	<g>
		<path class="st0" d="M336.1,232.8c11.8,0,24.7,0,26.7,0c3.6-5.9,13.6-13.6,17.2-14.4c-14.6,0.1-29.3,0.1-43.9,0.2L336.1,232.8z"/>
		<path class="st0" d="M329.6,218.5c-4.8,0-9.6,0.1-14.4,0.1c-1.7,0.4-6.2,1.6-9.2,5.7c-2.4,3.2-2.6,6.6-2.8,9.1
			c-0.5,6.6,2.1,8.8,2.1,15.3c0,2.5-0.3,6-2.1,10.4c-3.3,0-6.6,0-10,0c0,5.5,0,10.9,0,16.4c3.1,0,6.2,0,9.3,0c2.2,3.5,2.8,6.5,3,8.4
			c0.7,7.2-3.6,10.1-3,18.6c0.1,2.2,0.3,4.9,2.1,7.8c2.6,4.2,6.7,5.8,8.5,6.4c30.3,0,60.7,0,91,0c21-8.9,35.2-27.3,36.3-47.6
			c0.9-16-6.7-28.1-10-32.7c-5.6,0-11.3,0-16.9,0c1.8,1.9,13.4,14.9,11.4,33.7c-2.4,22.2-21.7,32.5-23.2,33.3c-27.6,0-55.1,0-82.7,0
			c-0.5-1.3-1.2-3.4-1.5-6c-0.5-4.8,0.8-7.8,1.5-12.3c0.4-2.8,0.8-6.9,0-12.2c-0.3-0.3-2.1-2.1-2-5c0.1-2.9,2-4.7,2.3-5
			c0.6-4.7,0.3-8.3,0-10.8c-0.7-5.2-2-7.8-1.6-12.6c0.2-3,1-5.4,1.6-6.8c3.4,0,6.9,0,10.3,0C329.6,228,329.6,223.3,329.6,218.5z"/>
	</g>
	<g>
		<path class="st1" d="M457.4,302.3c-11.8,0-23.8,0-25.7,0c-1.8,3.6-15.1,13.8-18.2,14.4c14.6-0.1,29.3-0.1,43.9-0.2L457.4,302.3z"
			/>
		<path class="st1" d="M464,316.7c4.8,0,9.6-0.1,14.4-0.1c1.2-0.2,5.9-1.3,9.2-5.7c4-5.2,3-11.1,2.8-12.1c-1-2.5-2.3-6.9-2.1-12.4
			c0.1-4.5,1.2-8.1,2.1-10.4c3.3,0,6.6,0,10,0c0-5.5,0-10.9,0-16.4c-3.1,0-6.2,0-9.3,0c-2.2-3.5-2.8-6.5-3-8.4
			c-0.7-7.2,3.6-10.1,3-18.6c-0.1-2.2-0.3-4.9-2.1-7.8c-2.6-4.2-6.7-5.8-8.5-6.4c-30.3,0-60.7,0-91,0c-21,8.9-35.2,27.3-36.3,47.6
			c-0.9,16,6.7,28.1,10,32.7c6.1,0,12.3,0,18.4,0c-1.6-1.5-14.8-14.7-12.6-34.4c2.4-21.9,21.5-31.9,22.9-32.6c27.6,0,55.1,0,82.7,0
			c0.5,1.3,1.2,3.4,1.5,6c0.5,4.8-0.8,7.8-1.5,12.3c-0.4,2.8-0.8,6.9,0,12.2c0.3,0.3,2.1,2.1,2,5c-0.1,2.9-2,4.7-2.3,5
			c-0.6,4.7-0.3,8.3,0,10.8c0.7,5.2,2,7.8,1.6,12.6c-0.2,3-1,5.4-1.6,6.8c-3.4,0-6.9,0-10.3,0C464,307.1,464,311.9,464,316.7z"/>
	</g>
</g>
<g>
	<path class="st1" d="M216.1,346.5h40.6v10.2h-14.2v37.9h-12.3v-37.9h-14V346.5z"/>
	<path class="st1" d="M265.6,359.3c2-1.1,4.3-1.7,6.8-1.7v11c-0.4,0-1-0.1-1.8-0.1c-2.8,0-5.1,0.7-6.9,2c-1.8,1.3-2.8,3.1-3,5.4
		v18.6h-12V359h12v5.2C262,362,263.6,360.4,265.6,359.3z"/>
	<path class="st1" d="M310.7,358.1v36.5h-12v-5.9c-2.5,4.2-6.4,6.4-11.7,6.5c-4,0-7.1-1.3-9.5-3.8c-2.4-2.5-3.5-5.9-3.5-10.2v-23.1
		h12v19.6c0,2.1,0.5,3.7,1.6,4.9c1.1,1.2,2.5,1.8,4.3,1.8c2.1,0,3.8-0.8,5-2.3c1.2-1.5,1.8-3.5,1.8-5.9v-18H310.7z"/>
	<path class="st1" d="M346.1,362.9c3.2,3.5,4.8,8.3,4.8,14.4c0,0.9,0,1.7-0.1,2.2h-25.4c0.6,2.1,1.6,3.7,3,4.8
		c1.4,1.1,3.2,1.7,5.3,1.7c1.6,0,3.1-0.3,4.6-0.9c1.5-0.6,2.8-1.6,4-2.8l6.3,6.3c-1.9,2.1-4.2,3.7-6.8,4.8c-2.7,1.1-5.7,1.7-9.1,1.7
		c-3.9,0-7.3-0.8-10.3-2.3c-2.9-1.5-5.2-3.7-6.7-6.5c-1.6-2.8-2.3-6-2.3-9.7c0-3.7,0.8-7,2.4-9.9c1.6-2.9,3.8-5.1,6.7-6.6
		c2.9-1.6,6.2-2.3,10-2.3C338.3,357.7,342.9,359.4,346.1,362.9z M339.2,373.1c0-2.1-0.6-3.8-1.9-5.1c-1.2-1.3-2.9-1.9-4.9-1.9
		c-1.9,0-3.5,0.6-4.8,1.9c-1.3,1.3-2.1,3-2.5,5.1H339.2z"/>
	<path class="st0" d="M384.2,358.7c-2.1-1.1-4.2-1.7-6.3-1.7c-2.4,0-4.6,0.6-6.5,1.8c-2,1.2-3.5,2.8-4.6,4.9c-1.1,2.1-1.7,4.4-1.7,7
		c0,2.6,0.6,4.9,1.7,7c1.1,2.1,2.7,3.7,4.6,4.9c2,1.2,4.1,1.8,6.5,1.8c1.9,0,4-0.5,6.1-1.5c2.1-1,4-2.3,5.7-4l7.2,7.8
		c-2.6,2.7-5.6,4.8-9.1,6.4c-3.5,1.6-7,2.4-10.5,2.4c-4.7,0-8.9-1.1-12.7-3.2c-3.8-2.2-6.7-5.1-8.9-8.8c-2.2-3.7-3.2-7.9-3.2-12.6
		c0-4.6,1.1-8.7,3.3-12.4c2.2-3.7,5.2-6.6,9.1-8.7c3.8-2.1,8.2-3.2,12.9-3.2c3.5,0,7,0.7,10.4,2.2c3.4,1.5,6.3,3.5,8.7,6l-7.2,8.6
		C388.2,361.4,386.4,359.8,384.2,358.7z"/>
	<path class="st0" d="M427.2,360c3,1.6,5.4,3.7,7,6.5c1.7,2.8,2.5,6.1,2.5,9.8c0,3.7-0.8,7-2.5,9.8c-1.7,2.8-4,5-7,6.5
		c-3,1.6-6.5,2.3-10.5,2.3s-7.4-0.8-10.5-2.3c-3-1.6-5.3-3.7-7-6.5c-1.6-2.8-2.5-6.1-2.5-9.8c0-3.7,0.8-6.9,2.5-9.8
		c1.6-2.8,4-5,7-6.5c3-1.6,6.5-2.3,10.5-2.3S424.1,358.4,427.2,360z M411,369.9c-1.4,1.7-2.2,3.8-2.2,6.5c0,2.7,0.7,4.9,2.2,6.6
		c1.4,1.7,3.3,2.5,5.7,2.5c2.4,0,4.3-0.8,5.7-2.5c1.4-1.7,2.2-3.9,2.2-6.6c0-2.7-0.7-4.9-2.2-6.5c-1.5-1.7-3.4-2.5-5.7-2.5
		S412.5,368.2,411,369.9z"/>
	<path class="st0" d="M478.6,344.5v50.1h-12v-4.7c-1.3,1.7-2.8,3-4.6,3.9c-1.8,0.9-3.9,1.3-6.2,1.3c-3.4,0-6.3-0.8-8.9-2.4
		c-2.6-1.6-4.6-3.8-6-6.6c-1.4-2.9-2.1-6.2-2.1-9.9c0-3.7,0.7-6.9,2.1-9.7c1.4-2.8,3.4-4.9,5.9-6.5c2.5-1.5,5.4-2.3,8.8-2.3
		c2.3,0,4.4,0.5,6.3,1.3c1.9,0.9,3.5,2.2,4.8,3.8v-18.4H478.6z M464.4,383.1c1.4-1.7,2.2-3.9,2.2-6.6c0-2.7-0.7-4.9-2.2-6.6
		c-1.4-1.7-3.3-2.5-5.7-2.5s-4.2,0.8-5.7,2.5c-1.5,1.7-2.2,3.9-2.2,6.6c0,2.7,0.7,4.9,2.2,6.6c1.5,1.7,3.4,2.5,5.7,2.5
		S463,384.7,464.4,383.1z"/>
	<path class="st0" d="M514.5,362.9c3.2,3.5,4.8,8.3,4.8,14.4c0,0.9,0,1.7-0.1,2.2h-25.4c0.6,2.1,1.6,3.7,3,4.8
		c1.4,1.1,3.2,1.7,5.3,1.7c1.6,0,3.1-0.3,4.6-0.9c1.5-0.6,2.8-1.6,4-2.8l6.3,6.3c-1.9,2.1-4.2,3.7-6.8,4.8c-2.7,1.1-5.7,1.7-9.1,1.7
		c-3.9,0-7.3-0.8-10.3-2.3c-2.9-1.5-5.2-3.7-6.7-6.5c-1.6-2.8-2.3-6-2.3-9.7c0-3.7,0.8-7,2.4-9.9c1.6-2.9,3.8-5.1,6.7-6.6
		c2.9-1.6,6.2-2.3,10-2.3C506.7,357.7,511.3,359.4,514.5,362.9z M507.6,373.1c0-2.1-0.6-3.8-1.9-5.1c-1.2-1.3-2.9-1.9-4.9-1.9
		c-1.9,0-3.5,0.6-4.8,1.9c-1.3,1.3-2.1,3-2.5,5.1H507.6z"/>
	<path class="st0" d="M538.2,359.3c2-1.1,4.3-1.7,6.8-1.7v11c-0.4,0-1-0.1-1.8-0.1c-2.8,0-5.1,0.7-6.9,2c-1.8,1.3-2.8,3.1-3,5.4
		v18.6h-12v-36.5h12v6.1C534.6,362,536.2,360.4,538.2,359.3z"/>
	<path class="st0" d="M561.3,365.9c-1,0-1.9,0.2-2.5,0.6c-0.6,0.4-0.9,1-0.9,1.7c0,0.8,0.5,1.5,1.5,2s2.6,1,4.7,1.6
		c2.6,0.8,4.8,1.5,6.5,2.3c1.7,0.7,3.2,1.9,4.5,3.4c1.3,1.5,1.9,3.5,1.9,5.9c0,3.7-1.4,6.6-4.3,8.7c-2.9,2.1-6.6,3.1-11.2,3.1
		c-3.1,0-6.1-0.4-8.9-1.3c-2.8-0.9-5.4-2.2-7.6-3.9l3.8-7.8c2.1,1.4,4.2,2.6,6.5,3.3c2.3,0.8,4.4,1.2,6.4,1.2c1.2,0,2.1-0.2,2.8-0.6
		c0.7-0.4,1-0.9,1-1.7c0-0.9-0.5-1.6-1.5-2.1c-1-0.5-2.6-1-4.8-1.6c-2.6-0.8-4.7-1.5-6.3-2.3c-1.7-0.7-3.1-1.9-4.4-3.3
		c-1.2-1.5-1.9-3.4-1.9-5.8c0-3.7,1.4-6.6,4.2-8.7c2.8-2.1,6.4-3.1,10.8-3.1c2.7,0,5.3,0.4,7.9,1.1c2.6,0.7,5,1.8,7.3,3.2l-4,7.8
		C568.2,367.1,564.4,365.9,561.3,365.9z"/>
</g>
</svg>
