<svg id="Layer_1" xmlns="http://www.w3.org/2000/svg" viewBox="0 0 792 612">
    <style>
        .st0{fill:#8a8a8d}.st1{fill:#0093c9}
    </style>
    <path class="st0" d="M342.8 228.8h23.7c3.2-5.3 12.1-12.1 15.3-12.8-13 .1-26 .1-39.1.2l.1 12.6z"/>
    <path class="st0" d="M336.9 216c-4.3 0-8.5 0-12.8.1-1.5.3-5.5 1.4-8.2 5.1-2.1 2.8-2.4 5.9-2.5 8.1-.4 5.9 1.9 7.8 1.9 13.6 0 2.2-.3 5.4-1.9 9.2h-8.9v14.6h8.2c2 3.1 2.5 5.7 2.7 7.4.7 6.4-3.2 9-2.7 16.6.1 1.9.3 4.4 1.9 6.9 2.3 3.7 6 5.2 7.6 5.7h81c18.7-7.9 31.3-24.3 32.3-42.4.8-14.2-5.9-25-8.9-29.1h-15c1.6 1.7 11.9 13.2 10.1 30-2.2 19.7-19.3 28.9-20.6 29.6h-73.5c-.5-1.2-1.1-3-1.3-5.3-.5-4.3.7-6.9 1.3-10.9.4-2.5.7-6.2 0-10.8-.3-.3-1.9-1.9-1.8-4.4 0-2.6 1.8-4.2 2.1-4.4.5-4.1.3-7.4 0-9.6-.6-4.6-1.8-7-1.4-11.2.2-2.7.9-4.8 1.4-6.1h9.2c-.2-4.2-.2-8.4-.2-12.7z"/>
    <path class="st1" d="M450.7 290.6h-22.9c-1.6 3.2-13.4 12.3-16.2 12.8 13-.1 26-.1 39.1-.2v-12.6z"/>
    <path class="st1" d="M456.5 303.4c4.3 0 8.5 0 12.8-.1 1.1-.2 5.2-1.1 8.2-5.1 3.6-4.7 2.7-9.9 2.5-10.8-.9-2.3-2-6.1-1.9-11 .1-4 1.1-7.2 1.9-9.2h8.9v-14.6h-8.2c-2-3.1-2.5-5.7-2.7-7.4-.7-6.4 3.2-9 2.7-16.6-.1-1.9-.3-4.4-1.9-6.9-2.3-3.7-6-5.2-7.6-5.7h-81c-18.7 7.9-31.3 24.3-32.3 42.4-.8 14.2 5.9 25 8.9 29.1h16.4c-1.4-1.4-13.2-13.1-11.2-30.6 2.1-19.5 19.2-28.4 20.4-29h73.5c.5 1.2 1.1 3 1.3 5.3.5 4.3-.7 6.9-1.3 10.9-.4 2.5-.7 6.2 0 10.8.3.3 1.9 1.9 1.8 4.4 0 2.6-1.8 4.2-2.1 4.4-.5 4.1-.3 7.4 0 9.6.6 4.6 1.8 7 1.4 11.2-.2 2.7-.9 4.8-1.4 6.1h-9.2c.1 4.3.1 8.5.1 12.8z"/>
    <g>
        <path class="st1" d="M236 329.9h36v9.1h-12.6v33.7h-11V339H236v-9.1z"/>
        <path class="st1" d="M280 341.3c1.8-1 3.8-1.5 6.1-1.5v9.8c-.4 0-.9-.1-1.6-.1-2.5 0-4.6.6-6.1 1.8-1.6 1.2-2.5 2.8-2.7 4.8v16.6H265V341h10.7v4.6c1.1-1.9 2.6-3.3 4.3-4.3zM320.2 340.2v32.5h-10.7v-5.3c-2.2 3.8-5.7 5.7-10.4 5.8-3.5 0-6.3-1.1-8.4-3.4-2.1-2.3-3.2-5.3-3.2-9v-20.5h10.7v17.5c0 1.8.5 3.3 1.4 4.3.9 1 2.2 1.6 3.8 1.6 1.9 0 3.4-.7 4.4-2.1 1.1-1.3 1.6-3.1 1.6-5.3v-16h10.8zM351.6 344.5c2.8 3.1 4.3 7.4 4.3 12.8 0 .8 0 1.5-.1 1.9h-22.6c.5 1.8 1.4 3.3 2.7 4.2 1.3 1 2.8 1.5 4.7 1.5 1.4 0 2.8-.3 4.1-.8 1.3-.6 2.5-1.4 3.6-2.5l5.6 5.6c-1.7 1.9-3.7 3.3-6.1 4.3-2.4 1-5.1 1.5-8.1 1.5-3.5 0-6.5-.7-9.1-2-2.6-1.4-4.6-3.3-6-5.8-1.4-2.5-2.1-5.4-2.1-8.6 0-3.3.7-6.3 2.1-8.8 1.4-2.5 3.4-4.5 5.9-5.9 2.6-1.4 5.5-2.1 8.9-2.1 5.3 0 9.4 1.6 12.2 4.7zm-6.1 9.1c0-1.9-.6-3.4-1.7-4.5s-2.6-1.7-4.4-1.7c-1.7 0-3.1.6-4.2 1.7s-1.9 2.6-2.3 4.6h12.6z"/>
        <path class="st0" d="M385.5 340.8c-1.9-1-3.7-1.5-5.6-1.5-2.1 0-4.1.5-5.8 1.6-1.7 1.1-3.1 2.5-4.1 4.4-1 1.9-1.5 3.9-1.5 6.2s.5 4.4 1.5 6.2c1 1.9 2.4 3.3 4.1 4.4 1.7 1.1 3.7 1.6 5.8 1.6 1.7 0 3.5-.4 5.4-1.3 1.9-.9 3.6-2.1 5-3.6l6.4 6.9c-2.3 2.4-5 4.3-8.1 5.7s-6.3 2.1-9.3 2.1c-4.2 0-7.9-1-11.3-2.9-3.4-1.9-6-4.5-7.9-7.9-1.9-3.3-2.9-7-2.9-11.2 0-4.1 1-7.8 2.9-11 2-3.3 4.7-5.9 8.1-7.7 3.4-1.9 7.3-2.8 11.5-2.8 3.1 0 6.2.7 9.2 2 3 1.3 5.6 3.1 7.7 5.3l-6.4 7.7c-1.2-1.9-2.8-3.2-4.7-4.2zM423.7 341.9c2.7 1.4 4.8 3.3 6.2 5.8 1.5 2.5 2.2 5.4 2.2 8.7 0 3.3-.7 6.2-2.2 8.7-1.5 2.5-3.6 4.4-6.2 5.8-2.7 1.4-5.8 2.1-9.3 2.1-3.5 0-6.6-.7-9.3-2.1-2.7-1.4-4.8-3.3-6.2-5.8-1.5-2.5-2.2-5.4-2.2-8.7 0-3.3.7-6.2 2.2-8.7 1.5-2.5 3.5-4.4 6.2-5.8 2.7-1.4 5.8-2.1 9.3-2.1 3.5 0 6.6.7 9.3 2.1zm-14.3 8.8c-1.3 1.5-1.9 3.4-1.9 5.8s.6 4.4 1.9 5.9c1.3 1.5 3 2.2 5 2.2 2.1 0 3.8-.7 5.1-2.2 1.3-1.5 1.9-3.4 1.9-5.9 0-2.4-.7-4.3-2-5.8s-3-2.2-5.1-2.2-3.7.7-4.9 2.2zM469.5 328.1v44.5h-10.7v-4.2c-1.1 1.5-2.5 2.7-4.1 3.5-1.6.8-3.5 1.2-5.5 1.2-3 0-5.6-.7-7.9-2.1s-4.1-3.4-5.3-5.9c-1.3-2.5-1.9-5.5-1.9-8.8 0-3.3.6-6.2 1.9-8.6 1.2-2.5 3-4.4 5.2-5.8 2.2-1.4 4.8-2 7.8-2 2.1 0 4 .4 5.6 1.2 1.7.8 3.1 1.9 4.2 3.4v-16.3h10.7zm-12.6 34.3c1.3-1.5 1.9-3.5 1.9-5.9 0-2.4-.6-4.4-1.9-5.9-1.3-1.5-3-2.2-5-2.2s-3.8.8-5.1 2.3c-1.3 1.5-2 3.5-2 5.9s.6 4.4 2 5.9c1.3 1.5 3 2.3 5.1 2.3s3.7-.9 5-2.4zM501.4 344.5c2.8 3.1 4.3 7.4 4.3 12.8 0 .8 0 1.5-.1 1.9H483c.5 1.8 1.4 3.3 2.7 4.2 1.3 1 2.8 1.5 4.7 1.5 1.4 0 2.8-.3 4.1-.8 1.3-.6 2.5-1.4 3.6-2.5l5.6 5.6c-1.7 1.9-3.7 3.3-6.1 4.3-2.4 1-5.1 1.5-8.1 1.5-3.5 0-6.5-.7-9.1-2-2.6-1.4-4.6-3.3-6-5.8-1.4-2.5-2.1-5.4-2.1-8.6 0-3.3.7-6.3 2.1-8.8 1.4-2.5 3.4-4.5 5.9-5.9 2.6-1.4 5.5-2.1 8.9-2.1 5.3 0 9.4 1.6 12.2 4.7zm-6.1 9.1c0-1.9-.6-3.4-1.7-4.5s-2.6-1.7-4.4-1.7c-1.7 0-3.1.6-4.2 1.7s-1.9 2.6-2.3 4.6h12.6zM522.5 341.3c1.8-1 3.8-1.5 6.1-1.5v9.8c-.4 0-.9-.1-1.6-.1-2.5 0-4.6.6-6.1 1.8-1.6 1.2-2.5 2.8-2.7 4.8v16.6h-10.7v-32.5h10.7v5.4c1.1-1.9 2.5-3.3 4.3-4.3zM543.1 347.1c-.9 0-1.7.2-2.2.5-.6.3-.8.9-.8 1.5 0 .7.4 1.3 1.3 1.7s2.3.9 4.2 1.4c2.3.7 4.3 1.3 5.8 2s2.9 1.7 4 3 1.7 3.1 1.7 5.3c0 3.3-1.3 5.9-3.8 7.7-2.5 1.9-5.9 2.8-9.9 2.8-2.8 0-5.4-.4-7.9-1.2-2.5-.8-4.8-1.9-6.7-3.5l3.4-6.9c1.8 1.3 3.8 2.3 5.8 3 2 .7 3.9 1 5.7 1 1 0 1.9-.2 2.5-.5.6-.3.9-.8.9-1.5 0-.8-.5-1.4-1.4-1.9-.9-.4-2.3-.9-4.2-1.4-2.3-.7-4.2-1.4-5.6-2-1.5-.7-2.8-1.6-3.9-3-1.1-1.3-1.7-3-1.7-5.2 0-3.3 1.2-5.9 3.7-7.7 2.5-1.9 5.7-2.8 9.6-2.8 2.4 0 4.7.3 7 1 2.3.6 4.5 1.6 6.5 2.8l-3.6 7c-4.3-2-7.7-3.1-10.4-3.1z"/>
    </g>
    <g>
        <path class="st1" d="M305.6 393.7c0 2.4-1.5 4-3.7 4-1.1 0-2-.4-2.6-1.2v1.2H297v-11h2.3v4.2c.6-.8 1.4-1.2 2.5-1.2 2.3-.1 3.8 1.5 3.8 4zm-2.3-.1c0-1.3-.8-2.2-2-2.2s-2 .9-2 2.2c0 1.3.8 2.2 2 2.2 1.1 0 2-.9 2-2.2zM314.1 394.3h-5.7c.3 1 1 1.6 2.1 1.6.8 0 1.5-.3 2-.8l1.2 1.2c-.8.9-2 1.4-3.4 1.4-2.6 0-4.2-1.6-4.2-4.1 0-2.5 1.7-4.1 4.1-4.1 2.7.1 4.1 1.9 3.9 4.8zm-2.2-1.3c0-1.1-.7-1.7-1.8-1.7-1 0-1.7.7-1.9 1.7h3.7zM331.9 392.6v5h-2.3v-4.4c0-1-.6-1.6-1.5-1.6-1.1 0-1.8.9-1.8 2v4H324v-4.4c0-1-.6-1.6-1.5-1.6-1.1 0-1.8.9-1.8 2v4h-2.3v-8h2.3v1.4c.6-1 1.5-1.5 2.7-1.5 1.4 0 2.3.7 2.7 1.8.5-1.2 1.5-1.8 2.9-1.8 1.8.1 2.9 1.2 2.9 3.1zM340.9 394.3h-5.7c.3 1 1 1.6 2.1 1.6.8 0 1.5-.3 2-.8l1.2 1.2c-.8.9-2 1.4-3.4 1.4-2.6 0-4.2-1.6-4.2-4.1 0-2.5 1.7-4.1 4.1-4.1 2.7.1 4 1.9 3.9 4.8zm-2.2-1.3c0-1.1-.7-1.7-1.8-1.7-1 0-1.7.7-1.9 1.7h3.7zM350 392.6v5h-2.3v-4.4c0-1-.6-1.6-1.6-1.6-1.1 0-1.8.9-1.8 2.1v3.9H342v-8h2.3v1.4c.6-1 1.5-1.5 2.8-1.5 1.7.1 2.9 1.2 2.9 3.1zM356.5 397.2c-.6.3-1.3.6-2.1.6-1.4 0-2.5-.8-2.5-2.5v-3.7h-1.1V390h1.1v-2.2h2.3v2.2h2.2v1.6h-2.2v3.3c0 .7.3.9.8.9.3 0 .7-.1 1.1-.3l.4 1.7zM365.4 393.7c0 2.4-1.7 4.1-4.3 4.1-2.6 0-4.3-1.7-4.3-4.1 0-2.5 1.7-4.1 4.3-4.1 2.6 0 4.3 1.6 4.3 4.1zm-6.3 0c0 1.3.8 2.2 2 2.2s2-.9 2-2.2-.8-2.2-2-2.2-2 .9-2 2.2zM368.8 391.1c.6-1 1.5-1.5 2.6-1.5v2.2c-1.6-.2-2.6.7-2.6 2.1v3.9h-2.3v-8h2.3v1.3zM379.7 394.3H374c.3 1 1 1.6 2.1 1.6.8 0 1.5-.3 2-.8l1.2 1.2c-.8.9-2 1.4-3.4 1.4-2.6 0-4.2-1.6-4.2-4.1 0-2.5 1.7-4.1 4.1-4.1 2.8.1 4.1 1.9 3.9 4.8zm-2.1-1.3c0-1.1-.7-1.7-1.8-1.7-1 0-1.7.7-1.9 1.7h3.7zM388.7 397.7h-2.3v-1.2c-.6.8-1.4 1.3-2.5 1.3-2.3 0-3.8-1.7-3.8-4.1 0-2.4 1.5-4.1 3.7-4.1 1.1 0 2 .4 2.6 1.3v-4.2h2.3v11zm-2.2-4c0-1.3-.8-2.2-2-2.2s-2 .9-2 2.2c0 1.3.8 2.2 2 2.2 1.1 0 2-.9 2-2.2zM392.4 396.6c0 .7-.5 1.2-1.1 1.2-.7 0-1.1-.5-1.1-1.2s.5-1.2 1.1-1.2c.7 0 1.1.5 1.1 1.2zM405.6 393.7c0 2.4-1.5 4-3.7 4-1.1 0-2-.4-2.6-1.2v1.2H397v-11h2.3v4.2c.6-.8 1.4-1.2 2.5-1.2 2.3-.1 3.8 1.5 3.8 4zm-2.3-.1c0-1.3-.8-2.2-2-2.2s-2 .9-2 2.2c0 1.3.8 2.2 2 2.2s2-.9 2-2.2zM414.1 394.3h-5.7c.3 1 1 1.6 2.1 1.6.8 0 1.5-.3 2-.8l1.2 1.2c-.8.9-2 1.4-3.4 1.4-2.6 0-4.2-1.6-4.2-4.1 0-2.5 1.7-4.1 4.1-4.1 2.8.1 4.1 1.9 3.9 4.8zM412 393c0-1.1-.7-1.7-1.8-1.7-1 0-1.7.7-1.9 1.7h3.7zM425.4 391.3l-1.5 1.1c-.4-.5-1-.9-1.8-.8-1.1 0-1.9.9-1.9 2.1 0 1.3.8 2.2 1.9 2.2.8 0 1.5-.3 1.9-.9l1.6 1.1c-.7 1.1-1.9 1.8-3.6 1.8-2.4 0-4.1-1.6-4.1-4.1 0-2.5 1.7-4.1 4.1-4.1 1.4-.1 2.7.5 3.4 1.6z"/>
        <path class="st1" d="M434.1 393.7c0 2.4-1.7 4.1-4.3 4.1-2.6 0-4.3-1.7-4.3-4.1 0-2.5 1.7-4.1 4.3-4.1 2.6 0 4.3 1.6 4.3 4.1zm-6.3 0c0 1.3.8 2.2 2 2.2s2-.9 2-2.2-.8-2.2-2-2.2-2 .9-2 2.2zM443.2 392.6v5h-2.3v-4.4c0-1-.6-1.6-1.6-1.6-1.1 0-1.8.9-1.8 2.1v3.9h-2.3v-8h2.3v1.4c.6-1 1.5-1.5 2.8-1.5 1.8.1 2.9 1.2 2.9 3.1zM452.8 392.6v5h-2.3v-4.4c0-1-.6-1.6-1.6-1.6-1.1 0-1.8.9-1.8 2.1v3.9h-2.3v-8h2.3v1.4c.6-1 1.5-1.5 2.8-1.5 1.8.1 2.9 1.2 2.9 3.1zM461.8 394.3H456c.3 1 1 1.6 2.1 1.6.8 0 1.5-.3 2-.8l1.2 1.2c-.8.9-2 1.4-3.4 1.4-2.6 0-4.2-1.6-4.2-4.1 0-2.5 1.7-4.1 4.1-4.1 2.9.1 4.2 1.9 4 4.8zm-2.2-1.3c0-1.1-.7-1.7-1.8-1.7-1 0-1.7.7-1.9 1.7h3.7zM469.8 391.3l-1.5 1.1c-.4-.5-1-.9-1.8-.8-1.1 0-1.9.9-1.9 2.1 0 1.3.8 2.2 1.9 2.2.8 0 1.5-.3 1.9-.9l1.6 1.1c-.7 1.1-1.9 1.8-3.6 1.8-2.4 0-4.1-1.6-4.1-4.1 0-2.5 1.7-4.1 4.1-4.1 1.5-.1 2.7.5 3.4 1.6zM475.9 397.2c-.6.3-1.3.6-2.1.6-1.4 0-2.5-.8-2.5-2.5v-3.7h-1.1V390h1.1v-2.2h2.3v2.2h2.2v1.6h-2.2v3.3c0 .7.3.9.8.9.3 0 .7-.1 1.1-.3l.4 1.7zM484.2 394.3h-5.7c.3 1 1 1.6 2.1 1.6.8 0 1.5-.3 2-.8l1.2 1.2c-.8.9-2 1.4-3.4 1.4-2.6 0-4.2-1.6-4.2-4.1 0-2.5 1.7-4.1 4.1-4.1 2.8.1 4.1 1.9 3.9 4.8zm-2.1-1.3c0-1.1-.7-1.7-1.8-1.7-1 0-1.7.7-1.9 1.7h3.7zM493.2 397.7H491v-1.2c-.6.8-1.4 1.3-2.5 1.3-2.3 0-3.8-1.7-3.8-4.1 0-2.4 1.5-4.1 3.7-4.1 1.1 0 2 .4 2.6 1.3v-4.2h2.3v11zm-2.2-4c0-1.3-.8-2.2-2-2.2s-2 .9-2 2.2c0 1.3.8 2.2 2 2.2 1.1 0 2-.9 2-2.2zM496.9 396.6c0 .7-.5 1.2-1.1 1.2-.7 0-1.1-.5-1.1-1.2s.5-1.2 1.1-1.2c.7 0 1.1.5 1.1 1.2z"/>
    </g>
</svg>
