<svg id="Layer_1" xmlns="http://www.w3.org/2000/svg" viewBox="0 0 792 612">
    <style>
        .st0{fill:#8a8a8d}.st1{fill:#0093c9}
    </style>
    <path class="st0" d="M336.1 232.8h26.7c3.6-5.9 13.6-13.6 17.2-14.4-14.6.1-29.3.1-43.9.2v14.2z"/>
    <path class="st0" d="M329.6 218.5c-4.8 0-9.6.1-14.4.1-1.7.4-6.2 1.6-9.2 5.7-2.4 3.2-2.6 6.6-2.8 9.1-.5 6.6 2.1 8.8 2.1 15.3 0 2.5-.3 6-2.1 10.4h-10v16.4h9.3c2.2 3.5 2.8 6.5 3 8.4.7 7.2-3.6 10.1-3 18.6.1 2.2.3 4.9 2.1 7.8 2.6 4.2 6.7 5.8 8.5 6.4h91c21-8.9 35.2-27.3 36.3-47.6.9-16-6.7-28.1-10-32.7h-16.9c1.8 1.9 13.4 14.9 11.4 33.7-2.4 22.2-21.7 32.5-23.2 33.3H319c-.5-1.3-1.2-3.4-1.5-6-.5-4.8.8-7.8 1.5-12.3.4-2.8.8-6.9 0-12.2-.3-.3-2.1-2.1-2-5 .1-2.9 2-4.7 2.3-5 .6-4.7.3-8.3 0-10.8-.7-5.2-2-7.8-1.6-12.6.2-3 1-5.4 1.6-6.8h10.3v-14.2z"/>
    <g>
        <path class="st1" d="M457.4 302.3h-25.7c-1.8 3.6-15.1 13.8-18.2 14.4 14.6-.1 29.3-.1 43.9-.2v-14.2z"/>
        <path class="st1" d="M464 316.7c4.8 0 9.6-.1 14.4-.1 1.2-.2 5.9-1.3 9.2-5.7 4-5.2 3-11.1 2.8-12.1-1-2.5-2.3-6.9-2.1-12.4.1-4.5 1.2-8.1 2.1-10.4h10v-16.4h-9.3c-2.2-3.5-2.8-6.5-3-8.4-.7-7.2 3.6-10.1 3-18.6-.1-2.2-.3-4.9-2.1-7.8-2.6-4.2-6.7-5.8-8.5-6.4h-91c-21 8.9-35.2 27.3-36.3 47.6-.9 16 6.7 28.1 10 32.7h18.4c-1.6-1.5-14.8-14.7-12.6-34.4 2.4-21.9 21.5-31.9 22.9-32.6h82.7c.5 1.3 1.2 3.4 1.5 6 .5 4.8-.8 7.8-1.5 12.3-.4 2.8-.8 6.9 0 12.2.3.3 2.1 2.1 2 5-.1 2.9-2 4.7-2.3 5-.6 4.7-.3 8.3 0 10.8.7 5.2 2 7.8 1.6 12.6-.2 3-1 5.4-1.6 6.8H464v14.3z"/>
    </g>
    <g>
        <path class="st1" d="M216.1 346.5h40.6v10.2h-14.2v37.9h-12.3v-37.9h-14v-10.2z"/>
        <path class="st1" d="M265.6 359.3c2-1.1 4.3-1.7 6.8-1.7v11c-.4 0-1-.1-1.8-.1-2.8 0-5.1.7-6.9 2-1.8 1.3-2.8 3.1-3 5.4v18.6h-12V359h12v5.2c1.3-2.2 2.9-3.8 4.9-4.9zM310.7 358.1v36.5h-12v-5.9c-2.5 4.2-6.4 6.4-11.7 6.5-4 0-7.1-1.3-9.5-3.8-2.4-2.5-3.5-5.9-3.5-10.2v-23.1h12v19.6c0 2.1.5 3.7 1.6 4.9 1.1 1.2 2.5 1.8 4.3 1.8 2.1 0 3.8-.8 5-2.3 1.2-1.5 1.8-3.5 1.8-5.9v-18h12zM346.1 362.9c3.2 3.5 4.8 8.3 4.8 14.4 0 .9 0 1.7-.1 2.2h-25.4c.6 2.1 1.6 3.7 3 4.8 1.4 1.1 3.2 1.7 5.3 1.7 1.6 0 3.1-.3 4.6-.9 1.5-.6 2.8-1.6 4-2.8l6.3 6.3c-1.9 2.1-4.2 3.7-6.8 4.8-2.7 1.1-5.7 1.7-9.1 1.7-3.9 0-7.3-.8-10.3-2.3-2.9-1.5-5.2-3.7-6.7-6.5-1.6-2.8-2.3-6-2.3-9.7 0-3.7.8-7 2.4-9.9 1.6-2.9 3.8-5.1 6.7-6.6 2.9-1.6 6.2-2.3 10-2.3 5.8-.1 10.4 1.6 13.6 5.1zm-6.9 10.2c0-2.1-.6-3.8-1.9-5.1-1.2-1.3-2.9-1.9-4.9-1.9-1.9 0-3.5.6-4.8 1.9-1.3 1.3-2.1 3-2.5 5.1h14.1z"/>
        <path class="st0" d="M384.2 358.7c-2.1-1.1-4.2-1.7-6.3-1.7-2.4 0-4.6.6-6.5 1.8-2 1.2-3.5 2.8-4.6 4.9-1.1 2.1-1.7 4.4-1.7 7 0 2.6.6 4.9 1.7 7 1.1 2.1 2.7 3.7 4.6 4.9 2 1.2 4.1 1.8 6.5 1.8 1.9 0 4-.5 6.1-1.5 2.1-1 4-2.3 5.7-4l7.2 7.8c-2.6 2.7-5.6 4.8-9.1 6.4-3.5 1.6-7 2.4-10.5 2.4-4.7 0-8.9-1.1-12.7-3.2-3.8-2.2-6.7-5.1-8.9-8.8-2.2-3.7-3.2-7.9-3.2-12.6 0-4.6 1.1-8.7 3.3-12.4 2.2-3.7 5.2-6.6 9.1-8.7 3.8-2.1 8.2-3.2 12.9-3.2 3.5 0 7 .7 10.4 2.2 3.4 1.5 6.3 3.5 8.7 6l-7.2 8.6c-1.5-2-3.3-3.6-5.5-4.7z"/>
        <path class="st0" d="M427.2 360c3 1.6 5.4 3.7 7 6.5 1.7 2.8 2.5 6.1 2.5 9.8 0 3.7-.8 7-2.5 9.8-1.7 2.8-4 5-7 6.5-3 1.6-6.5 2.3-10.5 2.3s-7.4-.8-10.5-2.3c-3-1.6-5.3-3.7-7-6.5-1.6-2.8-2.5-6.1-2.5-9.8 0-3.7.8-6.9 2.5-9.8 1.6-2.8 4-5 7-6.5 3-1.6 6.5-2.3 10.5-2.3s7.4.7 10.5 2.3zm-16.2 9.9c-1.4 1.7-2.2 3.8-2.2 6.5s.7 4.9 2.2 6.6c1.4 1.7 3.3 2.5 5.7 2.5 2.4 0 4.3-.8 5.7-2.5 1.4-1.7 2.2-3.9 2.2-6.6 0-2.7-.7-4.9-2.2-6.5-1.5-1.7-3.4-2.5-5.7-2.5s-4.2.8-5.7 2.5zM478.6 344.5v50.1h-12v-4.7c-1.3 1.7-2.8 3-4.6 3.9-1.8.9-3.9 1.3-6.2 1.3-3.4 0-6.3-.8-8.9-2.4-2.6-1.6-4.6-3.8-6-6.6-1.4-2.9-2.1-6.2-2.1-9.9s.7-6.9 2.1-9.7c1.4-2.8 3.4-4.9 5.9-6.5 2.5-1.5 5.4-2.3 8.8-2.3 2.3 0 4.4.5 6.3 1.3 1.9.9 3.5 2.2 4.8 3.8v-18.4h11.9zm-14.2 38.6c1.4-1.7 2.2-3.9 2.2-6.6 0-2.7-.7-4.9-2.2-6.6-1.4-1.7-3.3-2.5-5.7-2.5s-4.2.8-5.7 2.5-2.2 3.9-2.2 6.6c0 2.7.7 4.9 2.2 6.6 1.5 1.7 3.4 2.5 5.7 2.5s4.3-.9 5.7-2.5zM514.5 362.9c3.2 3.5 4.8 8.3 4.8 14.4 0 .9 0 1.7-.1 2.2h-25.4c.6 2.1 1.6 3.7 3 4.8 1.4 1.1 3.2 1.7 5.3 1.7 1.6 0 3.1-.3 4.6-.9 1.5-.6 2.8-1.6 4-2.8l6.3 6.3c-1.9 2.1-4.2 3.7-6.8 4.8-2.7 1.1-5.7 1.7-9.1 1.7-3.9 0-7.3-.8-10.3-2.3-2.9-1.5-5.2-3.7-6.7-6.5-1.6-2.8-2.3-6-2.3-9.7 0-3.7.8-7 2.4-9.9 1.6-2.9 3.8-5.1 6.7-6.6 2.9-1.6 6.2-2.3 10-2.3 5.8-.1 10.4 1.6 13.6 5.1zm-6.9 10.2c0-2.1-.6-3.8-1.9-5.1-1.2-1.3-2.9-1.9-4.9-1.9-1.9 0-3.5.6-4.8 1.9-1.3 1.3-2.1 3-2.5 5.1h14.1zM538.2 359.3c2-1.1 4.3-1.7 6.8-1.7v11c-.4 0-1-.1-1.8-.1-2.8 0-5.1.7-6.9 2-1.8 1.3-2.8 3.1-3 5.4v18.6h-12V358h12v6.1c1.3-2.1 2.9-3.7 4.9-4.8zM561.3 365.9c-1 0-1.9.2-2.5.6-.6.4-.9 1-.9 1.7 0 .8.5 1.5 1.5 2s2.6 1 4.7 1.6c2.6.8 4.8 1.5 6.5 2.3 1.7.7 3.2 1.9 4.5 3.4 1.3 1.5 1.9 3.5 1.9 5.9 0 3.7-1.4 6.6-4.3 8.7-2.9 2.1-6.6 3.1-11.2 3.1-3.1 0-6.1-.4-8.9-1.3-2.8-.9-5.4-2.2-7.6-3.9l3.8-7.8c2.1 1.4 4.2 2.6 6.5 3.3 2.3.8 4.4 1.2 6.4 1.2 1.2 0 2.1-.2 2.8-.6.7-.4 1-.9 1-1.7 0-.9-.5-1.6-1.5-2.1s-2.6-1-4.8-1.6c-2.6-.8-4.7-1.5-6.3-2.3-1.7-.7-3.1-1.9-4.4-3.3-1.2-1.5-1.9-3.4-1.9-5.8 0-3.7 1.4-6.6 4.2-8.7 2.8-2.1 6.4-3.1 10.8-3.1 2.7 0 5.3.4 7.9 1.1 2.6.7 5 1.8 7.3 3.2l-4 7.8c-4.6-2.5-8.4-3.7-11.5-3.7z"/>
    </g>
</svg>
